/* XPM */
static const char *bok_xpm[]={
"23 20 2 1",
"# c #000000",
". c #ffffff",
".#####################.",
"#######################",
"##...................##",
"##...................##",
"##....###...##....#..##",
"##...#####..##...##..##",
"##..##...##.##...##..##",
"##..##...##.##..##...##",
"##..##...##.##.##....##",
"##..##...##.####.....##",
"##..##...##.####.....##",
"##..##...##.##.##....##",
"##..##...##.##..##...##",
"##..##...##.##...##..##",
"##...#####..##...##..##",
"##....###...##....#..##",
"##...................##",
"##...................##",
"#######################",
".#####################."};
