/* XPM */
static const char * no3_xpm[] = {
"18 20 2 1",
".	c #000000",
"+	c #FFFFFF",
"+................+",
"..................",
"..++++++++++++++..",
"..++++++++++++++..",
"..+++++....+++++..",
"..+++........+++..",
"..+++..+++...+++..",
"..++++++++...+++..",
"..++++++....++++..",
"..++++++....++++..",
"..++++++++...+++..",
"..++++++++...+++..",
"..+++..+++...+++..",
"..+++........+++..",
"..++++.....+++++..",
"..++++++++++++++..",
"..++++++++++++++..",
"..++++++++++++++..",
"..................",
"+................+"};
