/* XPM */
static const char *rass_xpm[]={
"47 20 2 1",
"# c #000000",
". c #FFFFFF",
"...............................................",
"...............................................",
".....#####......######.........................",
".....######...#########........................",
"........###..##########........................",
"........########....###........................",
"........#######.....###........................",
".......######......####........................",
".......#####......####.............###....###..",
"......#####......####......###....####...###...",
"......####.....#####....######....###...####...",
".....#####.########....######....#####..#####..",
".....####..######.....####......######.######..",
"....####...####......####.##....###.#########..",
"....###.....####.....###..###.......##....###..",
"...####......#######.##..###.......###....###..",
"...###........######.##########.######.######..",
"..###..........####..#####.####.#####.######...",
"...............................................",
"..............................................."};
