/* XPM */
static const char * rds_xpm[] = {
"95 24 2 1",
".	c #000000",
"+	c #FFFFFF",
"+++++++++.......+++++++.......+++++++++++++++++++++++++++++++++++++++++++++++++++++++++++++++++",
"+++++++.+++++++++.+++.+++++++++..++++++++++++++++++++++++++++++++++++++++++++++++++++++++++++++",
"+++++..+++++++++++++.++++++++++++.+++++++++++++++++++++++++++++++++++++++++++++++++++++++++++++",
"++++.+++.+++++++.+.+++.+++++++.++++++++++++++++++++++++++++++++++++++++++++++++++++++++++++++++",
"+++.++.++++++++++.+++.++++++++++.++.++++++.......+++++++++++++.......++++++++++++++++++.....+++",
"++.++.+++.......++++.+++......+++.++.+++++...........+++++++++..........+++++++++++++.........+",
"++.+.+++.........++.++.........+++.+++++++............++++++++............++++++++++..........+",
"+.++.++.........++.++...........+++++.++++............++++++++.............+++++++++.........++",
"+.++++..........++.++............++++.++++....+++.....++++++++....+++......++++++++.....+++++++",
"+.+.++..........+.++.............++.+++++.....+++.....+++++++.....++++.....++++++++....++++++++",
"+++.+......+++..+.++.....+++......+.++.++.....+++.....+++++++.....+++++.....+++++++.....+++++++",
"..........+++++.+.++....+++++.....+....++....+++.....++....++....++++++.....+...+++........++++",
".....+....+++++.+.++.....++++....+.....++...........+++...+++....++++++....++...+++..........++",
"+....++.++.+++.+++++.....+++.++.++.....++..........++++...++.....++++++....++...++++.........++",
"+.....+++++...++.++.....+...+++.+.....+++........++++++...++.....+++++.....++...+++++++......++",
"+.....+++++++++++++.....++++++.++.....++..........++++++++++.....+++++....++++++++++++++.....++",
"+......+++.....+++.....+.....+++......++....+.....++++++++++....+++++.....+++++++++++++++....++",
"++......+++++++++......++++++++......+++....++.....+++++++++....+++......+++++++++..++++.....++",
"++.......+++++++......+.++++++.......+++....++.....+++++++++............+++++++++...........+++",
"+++...................+.............+++.....+++.....+++++++............+++++++++...........++++",
"++++.................+.............++++....++++......++++++..........++++++++++++.........+++++",
"+++++...............+.............+++++++++++++++++++++++++++++++++++++++++++++++++.....+++++++",
"+++++++...........+++...........+++++++++++++++++++++++++++++++++++++++++++++++++++++++++++++++",
"++++++++++.....+++++++++.....++++++++++++++++++++++++++++++++++++++++++++++++++++++++++++++++++"};
