/* XPM */
static const char *rds_xpm[] = {
"80 20 2 1",
".	c #000000",
"+	c #FFFFFF",
"++++++++.....++++++......+++++++++++++++++++++++++++++++++++++++++++++++++++++++",
"++++++.+++++++.+++.+++++++..++++++++++++++++++++++++++++++++++++++++++++++++++++",
"+++.+++.+++++.+.+++++++++.++++++++++++++++++++++++++++++++++++++++++++++++++++++",
"+++++.++++++++.+++.++++++++.+.+++++......+++++++++++......+++++++++++++++....+++",
"++.+.+++.....++++.++.....+++.+.++++..........+++++++.........+++++++++++.......+",
"++..+++.......++.++.......+++++++++..........+++++++..........+++++++++........+",
"+.+.++.......++.++.........++++.+++....++....+++++++...........++++++++.......++",
"+.+++........+.++...........+.+++++...+++....++++++.....+++....+++++++...+++++++",
"++++.....+++.+.++....+++......++.++...+++....++++++.....++++....++++++....++++++",
"........++++++.++...++++.........++...++.....+....+....+++++....+..+++.......+++",
"....+...++++++.++....+++....+....++.........++...++....+++++...++..+++........++",
"+...++.+.+++.++++....+++++.++....++........+++...++....+++++...++..++++.......++",
"+....+++++++++++....+++++.++....++........+++++++++....++++...++++++++++++....++",
"+.....++.....++....+....+++.....++...+....+++++++++...++++....+++++++++++++...++",
"++.....+++++++.....+++++++.....+++...++....++++++++...++.....++++++++..+++....++",
"++......+++++.......+++++......+++...++....++++++++..........+++++++.........+++",
"+++...........................+++....+++....++++++..........+++++++..........+++",
"++++.............+...........++++....+++....+++++++.......++++++++++++....++++++",
"++++++.........+++.........+++++++++++++++++++++++++++++++++++++++++++++++++++++",
"++++++++.....+++++++....++++++++++++++++++++++++++++++++++++++++++++++++++++++++"};
