/* XPM */
static const char *const ar11_xpm[] = {
"26 18 2 1",
".	c #FFFFFF",
"+	c #000000",
"++++++++++++++++++++++++++",
"+........................+",
"+......++..........++....+",
"+...+++++.......+++++....+",
"+...+++++.......+++++....+",
"+......++...++.....++....+",
"+......++...++.....++....+",
"+......++..........++....+",
"+......++..........++....+",
"+......++..........++....+",
"+......++..........++....+",
"+......++..........++....+",
"+......++..........++....+",
"+......++..........++....+",
"+......++...++.....++....+",
"+......++...++.....++....+",
"+........................+",
"++++++++++++++++++++++++++"};
