/* XPM */
static const char *const ar169_xpm[] = {
"38 18 2 1",
".	c #FFFFFF",
"+	c #000000",
"++++++++++++++++++++++++++++++++++++++",
"+....................................+",
"+......++.....++++..........++++.....+",
"+...+++++....+++++++.......++++++....+",
"+...+++++....++...++......++...+++...+",
"+......++...++........++..++....++...+",
"+......++...++........++..++....++...+",
"+......++...++............++....++...+",
"+......++...++.+++.........+++++++...+",
"+......++...+++++++.........+++.++...+",
"+......++...++....++............++...+",
"+......++...++....++............++...+",
"+......++...++....++............++...+",
"+......++...+++...++......++...++....+",
"+......++....++++++...++..+++++++....+",
"+......++.....++++....++...+++++.....+",
"+....................................+",
"++++++++++++++++++++++++++++++++++++++"};
