/* XPM */
static const char *const ar2211_xpm[] = {
"52 18 2 1",
".	c #FFFFFF",
"+	c #000000",
"++++++++++++++++++++++++++++++++++++++++++++++++++++",
"+..................................................+",
"+.....++++..........++++........++...........++....+",
"+...+++++++.......+++++++....+++++........+++++....+",
"+...++....++......++....++...+++++........+++++....+",
"+.........++............++......++...++......++....+",
"+.........++............++......++...++......++....+",
"+........+++...........+++......++...........++....+",
"+.......+++...........+++.......++...........++....+",
"+......+++...........+++........++...........++....+",
"+.....+++...........+++.........++...........++....+",
"+....+++...........+++..........++...........++....+",
"+...+++...........+++...........++...........++....+",
"+...++............++............++...........++....+",
"+...++++++++..++..++++++++......++...++......++....+",
"+...++++++++..++..++++++++......++...++......++....+",
"+..................................................+",
"++++++++++++++++++++++++++++++++++++++++++++++++++++"};
