/* XPM */
static const char *const device_xpm[] = {
"14 18 2 1",
".	c #FFFFFF",
"+	c #000000",
"++++++++++++++",
"+.............",
"+.......+..+..",
"+.......+..+..",
"+.......+..+..",
"+....+++++++++",
"+....+++++++++",
"+......+..+...",
"+......+..+...",
"+......+..+...",
"+......+..+...",
"+...+++++++++.",
"+...+++++++++.",
"+.....+..+....",
"+.....+..+....",
"+.....+..+....",
"+.............",
"++++++++++++++"};
