/* XPM */
static const char *const dolbydigital20_xpm[] = {
"55 18 2 1",
".	c #FFFFFF",
"+	c #000000",
"+++++++++++++++++++++++++++++++++++++++++++++++++++++++",
"+.....................................................+",
"+...+++++++++++.+++++++++++.....++++.........++++.....+",
"+...++.++++++++.++++++++.++...+++++++.......++++++....+",
"+...++...++++++.++++++...++...++....++......++..++....+",
"+...++.....++++.++++.....++.........++.....++....++...+",
"+...++......+++.+++......++.........++.....++....++...+",
"+...++.......++.++.......++........+++.....++....++...+",
"+...++.......++.++.......++.......+++......++....++...+",
"+...++.......++.++.......++......+++.......++....++...+",
"+...++.......++.++.......++.....+++........++....++...+",
"+...++......+++.+++......++....+++.........++....++...+",
"+...++.....++++.++++.....++...+++..........++....++...+",
"+...++...++++++.++++++...++...++............++..++....+",
"+...++.++++++++.++++++++.++...++++++++..++..++++++....+",
"+...+++++++++++.+++++++++++...++++++++..++...++++.....+",
"+.....................................................+",
"+++++++++++++++++++++++++++++++++++++++++++++++++++++++"};
