/* XPM */
static const char *const monoleft_xpm[] = {
"17 18 2 1",
".	c #FFFFFF",
"+	c #000000",
"+++++++++++++++++",
"+................",
"+...++...........",
"+...++++.........",
"+...++++++.......",
"+...++++++++.....",
"+...+++++++++++++",
"+...+++++++++++++",
"+...+++++++++..++",
"+...+++++++++..++",
"+...+++++++++++++",
"+...+++++++++++++",
"+...++++++++.....",
"+...++++++.......",
"+...++++.........",
"+...+++..........",
"+................",
"+++++++++++++++++"};
