/* XPM */
static const char *const ntsc_xpm[] = {
"19 18 2 1",
".	c #FFFFFF",
"+	c #000000",
"+++++++++++++++++++",
"+.................+",
"+...++.......++...+",
"+...+++......++...+",
"+...++++.....++...+",
"+...++++.....++...+",
"+...++.++....++...+",
"+...++..++...++...+",
"+...++..++...++...+",
"+...++...++..++...+",
"+...++...++..++...+",
"+...++....++.++...+",
"+...++.....++++...+",
"+...++.....++++...+",
"+...++......+++...+",
"+...++.......++...+",
"+.................+",
"+++++++++++++++++++"};
