/* XPM */
static const char *const one_xpm[] = {
"15 18 2 1",
".	c #FFFFFF",
"+	c #000000",
"+++++++++++++++",
"..............+",
".......++.....+",
"....+++++.....+",
"....+++++.....+",
".......++.....+",
".......++.....+",
".......++.....+",
".......++.....+",
".......++.....+",
".......++.....+",
".......++.....+",
".......++.....+",
".......++.....+",
".......++.....+",
".......++.....+",
"..............+",
"+++++++++++++++"};
