/* XPM */
static const char *const svdrp_xpm[] = {
"60 18 2 1",
".	c #FFFFFF",
"+	c #000000",
"++++++++++++++++++++++++++++++++++++++++++++++++++++++++++++",
"+..........................................................+",
"+.....+++++....++....++...++++++.....++++++.....++++++.....+",
"+....+++++++...++....++...+++++++....+++++++....+++++++....+",
"+...+++...++...++....++...++...+++...++...+++...++...+++...+",
"+...++....++...++....++...++....++...++....++...++....++...+",
"+...++.........++....++...++....++...++....++...++....++...+",
"+...+++.........++..++....++....++...++...+++...++...+++...+",
"+....+++++......++..++....++....++...+++++++....+++++++....+",
"+.....+++++.....++..++....++....++...++++++.....++++++.....+",
"+........+++....++..++....++....++...++...++....++.........+",
"+.........++.....++++.....++....++...++...++....++.........+",
"+...++....++.....++++.....++....++...++...++....++.........+",
"+...++...+++......++......++...+++...++....++...++.........+",
"+...+++++++.......++......+++++++....++....++...++.........+",
"+....+++++........++......++++++.....++....++...++.........+",
"+..........................................................+",
"++++++++++++++++++++++++++++++++++++++++++++++++++++++++++++"};
