/* XPM */
static const char * sync_red_xpm[] = {
"96 19 3 1",
" 	c None",
".	c #C40000",
"+	c #FFFFFF",
"................................................................................................",
"................................................................................................",
"..++++++++++++++++++++++++++++++++++++++++++++++++++++++++++++++++++++++++++++++++++++++++++++..",
"..++++++++++++++++++++++++++++++++++++++++++++++++++++++++++++++++++++++++++++++++++++++++++++..",
"..+++++++++++++++++++++++++.....+++...+++++...++...++++...+++++.....++++++++++++++++++++++++++..",
"..+++++++++++++++++++++++........+++...+++...+++....+++...++++.......+++++++++++++++++++++++++..",
"..+++++++++++++++++++++++...++...++++...+...++++.....++...++++...+....++++++++++++++++++++++++..",
"..+++++++++++++++++++++++...+++++++++...+...++++.....++...+++...+++..+++++++++++++++++++++++++..",
"..+++++++++++++++++++++++......+++++++.....+++++......+...+++...++++++++++++++++++++++++++++++..",
"..++++++++++++++++++++++++......++++++.....+++++...+..+...+++...++++++++++++++++++++++++++++++..",
"..++++++++++++++++++++++++++.....++++++...++++++...+......+++...++++++++++++++++++++++++++++++..",
"..+++++++++++++++++++++++...++...++++++...++++++...++.....+++...+++..+++++++++++++++++++++++++..",
"..+++++++++++++++++++++++...++...++++++...++++++...++.....++++...+....++++++++++++++++++++++++..",
"..++++++++++++++++++++++++......+++++++...++++++...+++....++++.......+++++++++++++++++++++++++..",
"..+++++++++++++++++++++++++....++++++++...++++++...++++...+++++.....++++++++++++++++++++++++++..",
"..++++++++++++++++++++++++++++++++++++++++++++++++++++++++++++++++++++++++++++++++++++++++++++..",
"..++++++++++++++++++++++++++++++++++++++++++++++++++++++++++++++++++++++++++++++++++++++++++++..",
"................................................................................................",
"................................................................................................"};
