/* XPM */
static const char *const two_xpm[] = {
"15 18 2 1",
".	c #FFFFFF",
"+	c #000000",
"+++++++++++++++",
"..............+",
".....++++.....+",
"...+++++++....+",
"...++....++...+",
".........++...+",
".........++...+",
"........+++...+",
".......+++....+",
"......+++.....+",
".....+++......+",
"....+++.......+",
"...+++........+",
"...++.........+",
"...++++++++...+",
"...++++++++...+",
"..............+",
"+++++++++++++++"};
