/* XPM */
static const char *const viterbi_xpm[] = {
"96 19 2 1",
".	c #FFFFFF",
"+	c #000000",
"++++++++++++++++++++++++++++++++++++++++++++++++++++++++++++++++++++++++++++++++++++++++++++++++",
"++++++++++++++++++++++++++++++++++++++++++++++++++++++++++++++++++++++++++++++++++++++++++++++++",
"++............................................................................................++",
"++............................................................................................++",
"++............+++.....+++..+++...+++++++++..++++++++...++++++++....++++++++....+++............++",
"++.............++.....++...+++...+++++++++..++++++++...+++++++++...+++++++++...+++............++",
"++.............+++...+++...+++......+++.....+++........+++...+++...+++...+++...+++............++",
"++.............+++...+++...+++......+++.....+++........+++...+++...+++...+++...+++............++",
"++..............++...++....+++......+++.....+++++++....++++++++....++++++++....+++............++",
"++..............+++.+++....+++......+++.....+++++++....+++++++.....++++++++....+++............++",
"++..............+++.+++....+++......+++.....+++........+++..+++....+++...+++...+++............++",
"++...............++.++.....+++......+++.....+++........+++..+++....+++...+++...+++............++",
"++...............+++++.....+++......+++.....+++........+++...+++...+++...+++...+++............++",
"++...............+++++.....+++......+++.....++++++++...+++...+++...+++++++++...+++............++",
"++................+++......+++......+++.....++++++++...+++....+++..++++++++....+++............++",
"++............................................................................................++",
"++............................................................................................++",
"++++++++++++++++++++++++++++++++++++++++++++++++++++++++++++++++++++++++++++++++++++++++++++++++",
"++++++++++++++++++++++++++++++++++++++++++++++++++++++++++++++++++++++++++++++++++++++++++++++++"};
