/* XPM */
static char * sig_xpm[] = {
"72 18 2 1",
" 	c None",
".	c #B9C000",
"                                                                        ",
"                                                           ... ... ...  ",
"                                                           .    .  . .  ",
"                                                           ...  .  ..   ",
"                                                             .  .  . .  ",
"   ....   ....   .....   .     .    ...    ..              ...  .  . .  ",
"  ..   .   ..   ..    .  ..    .    ...    ..                           ",
"  ..       ..   ..       ...   .   .. ..   ..                           ",
"  .....    ..   ..       . ..  .   .. ..   ..                           ",
"   .....   ..   ..  ...  .  .. .   .. ..   ..                           ",
"      ..   ..   ..   ..  .   ...  .......  ..                           ",
"  .   ..   ..   ..   ..  .    ..  ..   ..  ..                           ",
"   ....   ....   ......  .     .  ..   ..  ......         ... .  . ...  ",
"                                                          .   .  . . .  ",
"                                                          ... .. . ..   ",
"                                                            . . .. . .  ",
"                                                          ... .  . . .  ",
"                                                                        " };
