/* XPM */
static const char * arec_xpm[] = {
"52 21 2 1",
".	c #000000",
"+	c #FFFFFF",
"....................................................",
"....................................................",
"..++++++++++++++++++++++++++++++++++++++++++++++++..",
"..++++++++++++++++++++++++++++++++++++++++++++++++..",
"..+++......+++++.......+++++++++++++++++++++++++++..",
"..++..++++..++++..++++..++++++++++++++++++++++++++..",
"..++..++++..++++..++++..++++++++++++++++++++++++++..",
"..++..++++..++++..++++..++++++++++++++++++++++++++..",
"..++..++++..++++..++++..+++++......++++++......+++..",
"..++..++++..++++..++++..++++..++++..++++..++++..++..",
"..++........++++.......+++++..++++..++++..++++++++..",
"..++..++++..++++....++++++++..++++..++++..++++++++..",
"..++..++++..++++..+..+++++++........++++..++++++++..",
"..++..++++..++++..++..++++++..++++++++++..++++++++..",
"..++..++++..++++..+++..+++++..++++++++++..++++++++..",
"..++..++++..++++..++++..++++..++++..++++..++++..++..",
"..++..++++..++++..++++..+++++......++++++......+++..",
"..++++++++++++++++++++++++++++++++++++++++++++++++..",
"..++++++++++++++++++++++++++++++++++++++++++++++++..",
"....................................................",
"...................................................."};
