/* XPM */
static const char * index_xpm[] = {
"52 20 2 1",
".	c #000000",
"+	c #FFFFFF",
"++++++++++++++++++++++++++++++++++++++++++++++++++++",
"++++++++++++++++++++++++++++++++++++++++++++++++++++",
"++++++++++++++++++++++++++++++++++++++++++++++++++++",
"++++++++++++++++++++++++++++++++++++++++++++++++++++",
"++++....+++++++++++++++++++..+++++++++++++++++++++++",
"+++++..++++++++++++++++++++..+++++++++++++++++++++++",
"+++++..++++++++++++++++++++..+++++++++++++++++++++++",
"+++++..++++++++++++++++++++..+++++++++++++++++++++++",
"+++++..++++.......++++.......+++......+++..++++..+++",
"+++++..++++..++++..++..++++..++..++++..++..++++..+++",
"+++++..++++..++++..++..++++..++..++++..+++..++..++++",
"+++++..++++..++++..++..++++..++..++++..++++....+++++",
"+++++..++++..++++..++..++++..++........+++++..++++++",
"+++++..++++..++++..++..++++..++..++++++++++....+++++",
"+++++..++++..++++..++..++++..++..+++++++++..++..++++",
"+++++..++++..++++..++..++++..++..++++..++..++++..+++",
"++++....+++..++++..+++.......+++......+++..++++..+++",
"++++++++++++++++++++++++++++++++++++++++++++++++++++",
"++++++++++++++++++++++++++++++++++++++++++++++++++++",
"++++++++++++++++++++++++++++++++++++++++++++++++++++"};
