/* XPM */
static const char *page1_xpm[]={
"36 20 2 1",
"# c #000000",
". c #ffffff",
"....................................",
"....................................",
"....############....................",
"....############....................",
"....##........##....................",
"....##.######.##....................",
"....##.######.##....................",
"....##........##....................",
"....##........##....................",
"....##.######.##....................",
"....##.######.##....................",
"....##........##....................",
"....##........##....................",
"....##.######.##....................",
"....##.######.##....................",
"....##........##....................",
"....############....................",
"....############....................",
"....................................",
"...................................."};
