/* XPM */
static const char *pages3_xpm[]={
"36 20 2 1",
"# c #000000",
". c #ffffff",
"....................................",
"....############....................",
"....##################..............",
"....##........##############........",
"....##.######.##....########........",
"....##.######.#####.##....##........",
"....##........#####.#####.##........",
"....##........##....#####.##........",
"....##.######.##....##....##........",
"....##.######.#####.##....##........",
"....##........#####.#####.##........",
"....##........##....#####.##........",
"....##.######.##....##....##........",
"....##.######.#####.##....##........",
"....##........#####.#####.##........",
"....############....#####.##........",
"....##################....##........",
"..........##################........",
"................############........",
"...................................."};
