/* XPM */
static const char * rass_xpm[] = {
"52 21 2 1",
".	c #000000",
"+	c #FFFFFF",
"....................................................",
"....................................................",
"..++++++++++++++++++++++++++++++++++++++++++++++++..",
"..++++++++++++++++++++++++++++++++++++++++++++++++..",
"..++++.......+++++++++++++++++.......+++++.......+..",
"..+++.........+++++++++++++++........++++........+..",
"..+++...+++....+++++++++++++...+++++.+++...+++++.+..",
"..+++...+++....++.......++++...+++++++++...+++++++..",
"..+++...+++...+++........+++...+++++++++...+++++++..",
"..+++...+++...++++++++...+++.......+++++.......+++..",
"..+++........+++++.......+++........++++........++..",
"..++........++++.........+++++......++++++......++..",
"..++...+++...+++...+++...++++++++....++++++++....+..",
"..++...+++...++...++++...++++++++....++++++++....+..",
"..++...++++...+....++....++..++++...+++..++++...++..",
"..++...++++...++.........+.........+++.........+++..",
"..+....++++...++....+...+++.......+++++.......++++..",
"..++++++++++++++++++++++++++++++++++++++++++++++++..",
"..++++++++++++++++++++++++++++++++++++++++++++++++..",
"....................................................",
"...................................................."};
